<?xml version="1.0" encoding="utf-8"?>
<!-- Generator: Adobe Illustrator 24.0.2, SVG Export Plug-In . SVG Version: 6.00 Build 0)  -->
<svg version="1.1" id="Capa_1" xmlns="http://www.w3.org/2000/svg" xmlns:xlink="http://www.w3.org/1999/xlink" x="0px" y="0px"
	 viewBox="0 0 48 48" style="enable-background:new 0 0 48 48;" xml:space="preserve">
<style type="text/css">
	.st0{fill:#282828;}
	.st1{fill:#009245;fill-opacity:0.949;}
</style>
<g>
	<path class="st0" d="M20.6,0.1L1.8,10.9l0,22.3L27.4,48l18.8-10.8l-4-2.3l-14.7,8.5L18.1,38v-8l-7,4l0-17.7L27,7.1l6.9,4l-15.8,9.2
		l9.3,5.4l18.8-10.8L20.6,0.1z M4.7,30.3l0-17.7l15.8-9.2l3.5,2.1L8.3,14.6l0,17.7L4.7,30.3L4.7,30.3z M24,20.2l12.8-7.4l3.5,2.1
		l-12.8,7.4L24,20.2L24,20.2z"/>
	<polygon class="st1" points="27.4,43.4 18.1,38 18.1,20.3 27.4,25.7 	"/>
</g>
</svg>
